<svg width="24" height="24" viewBox="0 0 24 24" fill="none" xmlns="http://www.w3.org/2000/svg">
<g opacity="0.5">
<path fill-rule="evenodd" clip-rule="evenodd" d="M19.7424 3.02982C20.0085 3.0963 20.2356 3.26916 20.3706 3.50795L23.6206 9.25795L21.8794 10.2421L19.8938 6.72893C19.6095 7.84859 19.2272 9.23059 18.7612 10.6287C18.2217 12.2471 17.5554 13.9324 16.7773 15.2627C16.3883 15.9276 15.9503 16.5409 15.4575 17.017C14.9682 17.4898 14.3621 17.887 13.6414 17.99C12.3998 18.1673 11.4239 17.6988 10.6745 17.0094C9.96739 16.3588 9.41622 15.4707 8.955 14.702C8.89853 14.6079 8.84333 14.5155 8.78918 14.4248C8.36898 13.7211 8.0115 13.1225 7.61278 12.6642C7.17947 12.1663 6.83715 12 6.5 12C6.1464 12 5.7424 12.1846 5.28666 12.71C4.82962 13.2368 4.4114 14.0095 4.05759 14.9235C3.34814 16.7563 3.00001 18.8841 3 20L1 20C1.00002 18.6159 1.4019 16.2438 2.19245 14.2015C2.58865 13.178 3.10792 12.1694 3.77588 11.3994C4.44513 10.6279 5.35362 10 6.5 10C7.66284 10 8.508 10.6463 9.12157 11.3514C9.64698 11.9552 10.1041 12.7232 10.5082 13.402C10.5631 13.4942 10.617 13.5847 10.67 13.673C11.1463 14.4668 11.5639 15.1099 12.0286 15.5375C12.4511 15.9262 12.8502 16.0827 13.3586 16.0101C13.5129 15.988 13.7506 15.8852 14.0679 15.5787C14.3817 15.2755 14.7132 14.8302 15.0509 14.2529C15.7259 13.0989 16.3408 11.5654 16.8638 9.99628C17.3216 8.62282 17.6979 7.25663 17.9759 6.15519L14.5369 8.34367L13.4631 6.65634L18.9631 3.15634C19.1945 3.00908 19.4763 2.96334 19.7424 3.02982Z" fill="white"/>
</g>
</svg>
