<svg width="24" height="24" viewBox="0 0 24 24" fill="none" xmlns="http://www.w3.org/2000/svg">
<path d="M6.5 14C8.433 14 10 15.567 10 17.5C10 19.433 8.433 21 6.5 21C4.567 21 3 19.433 3 17.5C3 15.567 4.567 14 6.5 14ZM17.5 14C19.433 14 21 15.567 21 17.5C21 19.433 19.433 21 17.5 21C15.567 21 14 19.433 14 17.5C14 15.567 15.567 14 17.5 14ZM6.5 16C5.67157 16 5 16.6716 5 17.5C5 18.3284 5.67157 19 6.5 19C7.32843 19 8 18.3284 8 17.5C8 16.6716 7.32843 16 6.5 16ZM17.5 16C16.6716 16 16 16.6716 16 17.5C16 18.3284 16.6716 19 17.5 19C18.3284 19 19 18.3284 19 17.5C19 16.6716 18.3284 16 17.5 16ZM6.5 3C8.433 3 10 4.567 10 6.5C10 8.433 8.433 10 6.5 10C4.567 10 3 8.433 3 6.5C3 4.567 4.567 3 6.5 3ZM17.5 3C19.433 3 21 4.567 21 6.5C21 8.433 19.433 10 17.5 10C15.567 10 14 8.433 14 6.5C14 4.567 15.567 3 17.5 3ZM17.5 5C16.6716 5 16 5.67157 16 6.5C16 7.32843 16.6716 8 17.5 8C18.3284 8 19 7.32843 19 6.5C19 5.67157 18.3284 5 17.5 5Z" fill="white" fill-opacity="0.5"/>
</svg>
