<svg width="24" height="24" viewBox="0 0 24 24" fill="none" xmlns="http://www.w3.org/2000/svg">
<g opacity="0.5">
<path fill-rule="evenodd" clip-rule="evenodd" d="M8 6C8 5.17157 8.67157 4.5 9.5 4.5C10.3284 4.5 11 5.17157 11 6C11 6.82843 10.3284 7.5 9.5 7.5C8.67157 7.5 8 6.82843 8 6ZM9.5 2.5C7.567 2.5 6 4.067 6 6C6 7.933 7.567 9.5 9.5 9.5C11.433 9.5 13 7.933 13 6C13 4.067 11.433 2.5 9.5 2.5ZM16 16.5C18.7069 16.5 20.7456 17.4292 21.6114 19.0001H10.3886C11.2544 17.4292 13.2931 16.5 16 16.5ZM16 14.5C12.3208 14.5 8.63595 16.1015 8.01361 19.8357C7.96528 20.1257 8.04698 20.4222 8.23698 20.6465C8.42699 20.8708 8.70605 21.0001 9 21.0001H23C23.294 21.0001 23.573 20.8708 23.763 20.6465C23.953 20.4222 24.0347 20.1257 23.9864 19.8357C23.364 16.1015 19.6792 14.5 16 14.5ZM2.10121 19.0001C2.43728 17.3666 3.58677 15.9886 5.19538 14.9372C7.12508 13.676 9.56021 13 11.5 13V11C9.16853 11 6.35366 11.7909 4.10118 13.2631C1.84615 14.7369 0 17.0086 0 20.0001C0 20.5524 0.447715 21.0001 1 21.0001H6.5V19.0001H2.10121ZM15 10C15 9.44772 15.4477 9 16 9C16.5523 9 17 9.44772 17 10C17 10.5523 16.5523 11 16 11C15.4477 11 15 10.5523 15 10ZM16 7C14.3431 7 13 8.34315 13 10C13 11.6569 14.3431 13 16 13C17.6569 13 19 11.6569 19 10C19 8.34315 17.6569 7 16 7Z" fill="white"/>
</g>
</svg>
