<svg width="24" height="24" viewBox="0 0 24 24" fill="none" xmlns="http://www.w3.org/2000/svg">
<g opacity="0.5">
<path fill-rule="evenodd" clip-rule="evenodd" d="M14.4082 1V3.5658C15.3117 3.76117 16.102 4.11913 16.7263 4.67608C17.6617 5.51055 18.0926 6.67296 18.0926 8.00681C18.0926 9.63369 17.3229 10.8724 16.1328 11.6695C16.4905 11.8555 16.8104 12.0696 17.0939 12.3099C18.2603 13.2986 18.6676 14.6099 18.6676 15.8188C18.6676 17.2672 18.1409 18.5295 17.1024 19.4137C16.3775 20.0309 15.4576 20.4183 14.4082 20.5905V23.1071H12.4082V20.6948H10.8965V23.1071H8.89648V20.6948H7.59961H6.59961V19.6948V11.7988V4.38281V3.38281H7.59961C8.03203 3.38281 8.46438 3.38349 8.89648 3.38453V1H10.8965V3.39067C11.4008 3.39226 11.9046 3.39366 12.4082 3.39435V1H14.4082ZM11.7956 10.7988C13.1296 10.7988 14.2425 10.5152 14.9882 10.0287C15.6902 9.57063 16.0926 8.9255 16.0926 8.00681C16.0926 7.12066 15.8215 6.54908 15.3949 6.16854C14.9461 5.76813 14.1941 5.46273 13.0205 5.39481C12.1201 5.39475 11.22 5.39178 10.3217 5.38881L10.3208 5.38881C9.74646 5.38691 9.17286 5.38502 8.59961 5.38388V10.7988H11.7956ZM8.59961 12.7988H11.7956C13.9505 12.7988 15.1513 13.2851 15.8006 13.8355C16.4264 14.366 16.6676 15.0647 16.6676 15.8188C16.6676 16.7585 16.3423 17.4342 15.8058 17.8909C15.2497 18.3644 14.356 18.6948 13.0716 18.6948H8.59961V12.7988Z" fill="white"/>
</g>
</svg>
