<svg width="24" height="24" viewBox="0 0 24 24" fill="none" xmlns="http://www.w3.org/2000/svg">
<path opacity="0.5" fill-rule="evenodd" clip-rule="evenodd" d="M15.0001 1H11.0001V3H14.0001L15.0001 1ZM17.4575 9.35971C17.8981 9.93247 18.2383 10.5085 18.4897 11H5.51052C5.7619 10.5085 6.10214 9.93247 6.54272 9.35971C7.6777 7.88423 9.4149 6.5 12.0001 6.5C14.5853 6.5 16.3225 7.88423 17.4575 9.35971ZM21.0001 19V12.9999L22.5002 12.9997L22.5 10.9997L20.6926 10.9999C20.6381 10.8691 20.5747 10.7232 20.5018 10.5653C20.1983 9.90782 19.7246 9.02675 19.0427 8.14029C17.6777 6.36577 15.4149 4.5 12.0001 4.5C8.5853 4.5 6.32249 6.36577 4.95747 8.14029C4.27558 9.02675 3.80185 9.90782 3.49839 10.5653C3.4255 10.7232 3.36207 10.8691 3.30762 10.9999L1.5002 10.9998L1.5 12.9998L3.0001 12.9999V19H1.5001V21H22.5001V19H21.0001ZM5.0001 13V19H8.0001V13H5.0001ZM14.0001 13V19H10.0001V13H14.0001ZM16.0001 19V13H19.0001V19H16.0001Z" fill="white"/>
</svg>
